<svg xmlns:mydata="http://www.w3.org/2000/svg" mydata:contrastcolor="003087" mydata:template="Default" mydata:presentation="2.5" mydata:layouttype="undefined" mydata:specialfontid="undefined" mydata:id1="769" mydata:id2="769" mydata:companyname="Cool Codders" mydata:companytagline="" version="1.1" xmlns="http://www.w3.org/2000/svg" xmlns:xlink="http://www.w3.org/1999/xlink" viewBox="0 0 550 470"><g fill="none" fill-rule="nonzero" stroke="none" stroke-width="1" stroke-linecap="butt" stroke-linejoin="miter" stroke-miterlimit="10" stroke-dasharray="" stroke-dashoffset="0" font-family="none" font-weight="none" font-size="none" text-anchor="none" style="mix-blend-mode: normal"><g data-paper-data="{&quot;isGlobalGroup&quot;:true,&quot;bounds&quot;:{&quot;x&quot;:100.19106482559025,&quot;y&quot;:169.10867414323175,&quot;width&quot;:349.61787034881945,&quot;height&quot;:131.7826517135364}}"><g data-paper-data="{&quot;isSecondaryText&quot;:true}" fill="#e35205"><path d="M131.83823,300.8867c2.2914,0 4.58281,-0.87215 6.32725,-2.6166c0.00715,-0.0073 0.00715,-0.01908 0,-0.02638l-2.52554,-2.52568c-0.007,-0.007 -0.01923,-0.007 -0.02653,0c-2.08156,2.08171 -5.46881,2.08171 -7.55038,0c-1.00852,-1.00837 -1.56382,-2.34908 -1.56382,-3.77519c0,-1.42611 0.55545,-2.76682 1.56382,-3.77534c2.08156,-2.08171 5.46881,-2.08171 7.55038,0c0.0073,0.007 0.01952,0.007 0.02653,0l2.52554,-2.52568c0.00715,-0.0073 0.00715,-0.01908 0,-0.02638c-3.48889,-3.48889 -9.16561,-3.48889 -12.65451,0c-1.69005,1.69005 -2.62077,3.93704 -2.62077,6.32725c0,2.39021 0.93072,4.6372 2.62077,6.32725c1.74445,1.7446 4.03585,2.61674 6.32725,2.61674z" data-paper-data="{&quot;glyphName&quot;:&quot;C&quot;,&quot;glyphIndex&quot;:0,&quot;firstGlyphOfWord&quot;:true,&quot;word&quot;:1}"></path><path d="M184.45125,300.89132c4.93363,0 8.94728,-4.01439 8.94728,-8.94877c0,-4.93363 -4.01379,-8.94728 -8.94728,-8.94728c-4.93423,0 -8.94877,4.01379 -8.94877,8.94728c0,4.93438 4.01439,8.94877 8.94877,8.94877zM179.1121,291.94256c0,-2.94402 2.39513,-5.33916 5.33916,-5.33916c2.94402,0 5.33916,2.39513 5.33916,5.33916c0,2.94402 -2.39513,5.33916 -5.33916,5.33916c-2.94402,0 -5.33916,-2.39513 -5.33916,-5.33916z" data-paper-data="{&quot;glyphName&quot;:&quot;O&quot;,&quot;glyphIndex&quot;:1,&quot;word&quot;:1}"></path><path d="M230.7268,300.89088h6.31399c4.93393,0 8.94817,-4.01409 8.94817,-8.94802c0,-4.93393 -4.01424,-8.94802 -8.94817,-8.94802h-6.31399c-0.01028,0 -0.01863,0.00835 -0.01863,0.01863v17.85878c0,0.01028 0.0082,0.01863 0.01863,0.01863zM234.31585,286.60385h2.72494c2.94402,0 5.33901,2.39513 5.33901,5.33901c0,2.94388 -2.39498,5.33901 -5.33901,5.33901h-2.72494z" data-paper-data="{&quot;glyphName&quot;:&quot;D&quot;,&quot;glyphIndex&quot;:2,&quot;word&quot;:1}"></path><path d="M281.8818,300.89088h6.31399c4.93393,0 8.94817,-4.01409 8.94817,-8.94802c0,-4.93393 -4.01424,-8.94802 -8.94817,-8.94802h-6.31399c-0.01028,0 -0.01863,0.00835 -0.01863,0.01863v17.85878c0,0.01028 0.0082,0.01863 0.01863,0.01863zM285.47084,286.60385h2.72494c2.94402,0 5.33901,2.39513 5.33901,5.33901c0,2.94388 -2.39498,5.33901 -5.33901,5.33901h-2.72494z" data-paper-data="{&quot;glyphName&quot;:&quot;D&quot;,&quot;glyphIndex&quot;:3,&quot;word&quot;:1}"></path><path d="M333.03687,300.89088h15.24368c0.01028,0 0.01863,-0.00835 0.01863,-0.01863v-3.57176c0,-0.01028 -0.00835,-0.01863 -0.01863,-0.01863h-11.65314v-3.5345h8.08273c0.01028,0 0.01863,-0.00835 0.01863,-0.01863v-3.57176c0,-0.01028 -0.00835,-0.01863 -0.01863,-0.01863h-8.08273v-3.5345h11.65314c0.01028,0 0.01863,-0.00835 0.01863,-0.01863v-3.57176c0,-0.01028 -0.00835,-0.01863 -0.01863,-0.01863h-15.24368c-0.01028,0 -0.01863,0.00835 -0.01863,0.01863v17.85878c0,0.01028 0.00835,0.01863 0.01863,0.01863z" data-paper-data="{&quot;glyphName&quot;:&quot;E&quot;,&quot;glyphIndex&quot;:4,&quot;word&quot;:1}"></path><path d="M384.19187,300.89132h3.57086c0.01028,0 0.01863,-0.00835 0.01863,-0.01863v-3.89352h4.68027c0.11431,0 0.22892,-0.00313 0.34144,-0.00864l2.41913,3.912c0.00328,0.00551 0.00939,0.00879 0.0158,0.00879h4.19681c0.00671,0 0.01297,-0.00373 0.01625,-0.00954c0.00313,-0.00596 0.00313,-0.01311 -0.00045,-0.01878l-3.12316,-5.05107c1.95742,-1.29898 3.12585,-3.47459 3.12585,-5.82471c0,-3.85537 -3.13658,-6.99195 -6.99195,-6.99195h-8.26977c-0.01028,0 -0.01863,0.00835 -0.01863,0.01863v17.85878c0.0003,0.01028 0.00864,0.01863 0.01893,0.01863zM394.4122,292.75167c-0.56961,0.40522 -1.24414,0.61939 -1.95056,0.61939h-4.68027v-6.76765h4.68027c1.86591,0 3.38382,1.51806 3.38382,3.38382c0,1.09734 -0.53563,2.13074 -1.43326,2.76444z" data-paper-data="{&quot;glyphName&quot;:&quot;R&quot;,&quot;glyphIndex&quot;:5,&quot;word&quot;:1}"></path><path d="M444.43297,297.28335h-4.53526c-0.97513,0 -1.76829,-0.79331 -1.76829,-1.76829c0,-0.01028 -0.00835,-0.01863 -0.01863,-0.01863h-3.57042c-0.01028,0 -0.01863,0.00835 -0.01863,0.01863c0,2.96429 2.41167,5.37597 5.37597,5.37597h4.53526c2.96444,0 5.37597,-2.41167 5.37597,-5.37597c0,-2.96429 -2.41167,-5.37597 -5.37597,-5.37597h-4.53526c-0.97513,0 -1.76829,-0.79331 -1.76829,-1.76829c0,-0.97498 0.79316,-1.76829 1.76829,-1.76829h4.53526c0.97513,0 1.76829,0.79331 1.76829,1.76829c0,0.01028 0.00835,0.01863 0.01863,0.01863h3.57042c0.01028,0 0.01863,-0.00835 0.01863,-0.01863c0,-2.96429 -2.41167,-5.37597 -5.37597,-5.37597h-4.53526c-2.96444,0 -5.37597,2.41167 -5.37597,5.37597c0,2.96429 2.41167,5.37597 5.37597,5.37597h4.53526c0.97513,0 1.76829,0.79331 1.76829,1.76829c0,0.97498 -0.79316,1.76829 -1.76829,1.76829z" data-paper-data="{&quot;glyphName&quot;:&quot;S&quot;,&quot;glyphIndex&quot;:6,&quot;lastGlyphOfWord&quot;:true,&quot;word&quot;:1}"></path></g><g data-paper-data="{&quot;isPrimaryText&quot;:true}" fill="#0085ca"><path d="M146.89767,262.49997c11.96059,0 23.92119,-4.55242 33.02679,-13.65802c0.03734,-0.03812 0.03734,-0.09957 0,-0.13769l-13.18271,-13.18349c-0.03656,-0.03656 -0.10035,-0.03656 -0.13847,0c-10.86527,10.86605 -28.54595,10.86605 -39.41122,0c-5.26422,-5.26344 -8.16276,-12.26165 -8.16276,-19.70561c0,-7.44396 2.89933,-14.44217 8.16276,-19.70639c10.86527,-10.86605 28.54595,-10.86605 39.41122,0c0.03812,0.03656 0.10191,0.03656 0.13847,0l13.18271,-13.18349c0.03734,-0.03812 0.03734,-0.09957 0,-0.13769c-18.21122,-18.21122 -47.84237,-18.21122 -66.05359,0c-8.82167,8.82167 -13.6798,20.55044 -13.6798,33.02679c0,12.47636 4.85814,24.20513 13.67981,33.02679c9.10561,9.10639 21.0662,13.6588 33.02679,13.6588z" data-paper-data="{&quot;glyphName&quot;:&quot;C&quot;,&quot;glyphIndex&quot;:0,&quot;firstGlyphOfWord&quot;:true,&quot;word&quot;:1}"></path><path d="M238.47228,262.52409c25.75242,0 46.70271,-20.95418 46.70271,-46.71049c0,-25.75242 -20.95107,-46.70271 -46.70271,-46.70271c-25.75553,0 -46.71049,20.95107 -46.71049,46.70271c0,25.75631 20.95418,46.71049 46.71049,46.71049zM210.60313,215.8136c0,-15.36712 12.50203,-27.86915 27.86915,-27.86915c15.36712,0 27.86915,12.50203 27.86915,27.86915c0,15.36712 -12.50203,27.86915 -27.86915,27.86915c-15.36712,0 -27.86915,-12.50203 -27.86915,-27.86915z" data-paper-data="{&quot;glyphName&quot;:&quot;O&quot;,&quot;glyphIndex&quot;:1,&quot;word&quot;:1}"></path><path d="M349.40932,226.47758c5.91096,-14.27002 -0.86539,-30.62993 -15.13541,-36.54089c-14.27002,-5.91096 -30.62993,0.86539 -36.54089,15.13541c-5.91096,14.27002 0.86539,30.62993 15.13541,36.54089c14.27002,5.91096 30.62993,-0.86539 36.54089,-15.13541zM449.71169,243.68365h-60.82593v-74.47773c0,-0.05368 -0.04356,-0.09724 -0.09724,-0.09724h-65.24921c-0.05368,0 -0.09724,0.04356 -0.09724,0.09724c0,0.05368 0.04356,0.09724 0.09724,0.09724c25.64507,0 46.50823,20.86316 46.50823,46.50823v46.61325c0,0.05368 0.04356,0.09724 0.09724,0.09724h79.56692c0.05368,0 0.09724,-0.04356 0.09724,-0.09724v-18.64374c0,-0.05368 -0.04356,-0.09724 -0.09724,-0.09724z" data-paper-data="{&quot;glyphName&quot;:&quot;&quot;,&quot;glyphIndex&quot;:2,&quot;lastGlyphOfWord&quot;:true,&quot;word&quot;:1}"></path></g></g></g></svg>