<svg xmlns:mydata="http://www.w3.org/2000/svg" mydata:contrastcolor="003087" mydata:template="Default" mydata:presentation="2.5" mydata:layouttype="undefined" mydata:specialfontid="undefined" mydata:id1="769" mydata:id2="769" mydata:companyname="Cool Codders" mydata:companytagline="" version="1.1" xmlns="http://www.w3.org/2000/svg" xmlns:xlink="http://www.w3.org/1999/xlink" viewBox="0 0 550 470"><g fill="#0085ca" fill-rule="nonzero" stroke="none" stroke-width="1" stroke-linecap="butt" stroke-linejoin="miter" stroke-miterlimit="10" stroke-dasharray="" stroke-dashoffset="0" font-family="none" font-weight="none" font-size="none" text-anchor="none" style="mix-blend-mode: normal"><g data-paper-data="{&quot;isGlobalGroup&quot;:true,&quot;bounds&quot;:{&quot;x&quot;:65,&quot;y&quot;:215.61619467366748,&quot;width&quot;:420,&quot;height&quot;:38.76761065266501}}"><g data-paper-data="{&quot;isPrimaryText&quot;:true}"><path d="M84.38332,254.37379c4.96367,0 9.92733,-1.88926 13.70618,-5.6681c0.0155,-0.01582 0.0155,-0.04132 0,-0.05714l-5.47085,-5.47117c-0.01517,-0.01517 -0.04165,-0.01517 -0.05747,0c-4.50911,4.50943 -11.84662,4.50943 -16.35572,0c-2.18466,-2.18434 -3.38756,-5.08861 -3.38756,-8.17786c0,-3.08926 1.20322,-5.99353 3.38756,-8.17818c4.50911,-4.50943 11.84662,-4.50943 16.35572,0c0.01582,0.01517 0.04229,0.01517 0.05747,0l5.47085,-5.47117c0.0155,-0.01582 0.0155,-0.04132 0,-0.05714c-7.55769,-7.55769 -19.85466,-7.55769 -27.41235,0c-3.66101,3.66101 -5.67714,8.52847 -5.67714,13.70618c0,5.17771 2.01614,10.04517 5.67714,13.70618c3.77884,3.77917 8.74251,5.66843 13.70618,5.66843z" data-paper-data="{&quot;glyphName&quot;:&quot;C&quot;,&quot;glyphIndex&quot;:0,&quot;firstGlyphOfWord&quot;:true,&quot;word&quot;:1}"></path><path d="M122.38694,254.3838c10.6873,0 19.3817,-8.69602 19.3817,-19.38493c0,-10.6873 -8.69473,-19.3817 -19.3817,-19.3817c-10.68859,0 -19.38493,8.69473 -19.38493,19.3817c0,10.68891 8.69602,19.38493 19.38493,19.38493zM110.82119,234.99887c0,-6.37738 5.18836,-11.56575 11.56575,-11.56575c6.37738,0 11.56575,5.18836 11.56575,11.56575c0,6.37738 -5.18836,11.56575 -11.56575,11.56575c-6.37738,0 -11.56575,-5.18836 -11.56575,-11.56575z" data-paper-data="{&quot;glyphName&quot;:&quot;O&quot;,&quot;glyphIndex&quot;:1,&quot;word&quot;:1}"></path><path d="M168.426,239.42444c2.45306,-5.92208 -0.35914,-12.71147 -6.28122,-15.16453c-5.92208,-2.45306 -12.71147,0.35914 -15.16453,6.28122c-2.45306,5.92208 0.35914,12.71147 6.28122,15.16453c5.92208,2.45306 12.71147,-0.35914 15.16453,-6.28122zM210.05165,246.56499h-25.24286v-30.90839c0,-0.02228 -0.01808,-0.04036 -0.04036,-0.04036h-27.07853c-0.02228,0 -0.04036,0.01808 -0.04036,0.04036c0,0.02228 0.01808,0.04036 0.04036,0.04036c10.64275,0 19.30099,8.65825 19.30099,19.30099v19.34458c0,0.02228 0.01808,0.04036 0.04036,0.04036h33.02041c0.02228,0 0.04036,-0.01808 0.04036,-0.04036v-7.73718c0,-0.02228 -0.01808,-0.04036 -0.04036,-0.04036z" data-paper-data="{&quot;glyphName&quot;:&quot;&quot;,&quot;glyphIndex&quot;:2,&quot;lastGlyphOfWord&quot;:true,&quot;word&quot;:1}"></path><path d="M251.16248,254.37379c4.96367,0 9.92733,-1.88926 13.70618,-5.6681c0.0155,-0.01582 0.0155,-0.04132 0,-0.05714l-5.47085,-5.47117c-0.01517,-0.01517 -0.04165,-0.01517 -0.05747,0c-4.50911,4.50943 -11.84662,4.50943 -16.35572,0c-2.18466,-2.18434 -3.38756,-5.08861 -3.38756,-8.17786c0,-3.08926 1.20322,-5.99353 3.38756,-8.17818c4.50911,-4.50943 11.84662,-4.50943 16.35572,0c0.01582,0.01517 0.04229,0.01517 0.05747,0l5.47085,-5.47117c0.0155,-0.01582 0.0155,-0.04132 0,-0.05714c-7.55769,-7.55769 -19.85466,-7.55769 -27.41235,0c-3.66101,3.66101 -5.67714,8.52847 -5.67714,13.70618c0,5.17771 2.01614,10.04517 5.67714,13.70618c3.77884,3.77917 8.74251,5.66843 13.70618,5.66843z" data-paper-data="{&quot;glyphName&quot;:&quot;C&quot;,&quot;glyphIndex&quot;:3,&quot;firstGlyphOfWord&quot;:true,&quot;word&quot;:2}"></path><path d="M281.38727,246.60405c6.40987,0 11.6061,-5.19623 11.6061,-11.6061c0,-6.40987 -5.19623,-11.6061 -11.6061,-11.6061c-6.40987,0 -11.6061,5.19623 -11.6061,11.6061c0,6.40987 5.19623,11.6061 11.6061,11.6061zM314.40638,215.61625h-13.67777c-0.02228,0 -0.04036,0.01808 -0.04036,0.04036v19.34135c0,10.64436 -8.65825,19.30422 -19.30099,19.30422c-0.02228,0 -0.04036,0.01808 -0.04036,0.04036c0,0.02228 0.01808,0.04036 0.04036,0.04036h33.01911c10.68794,0 19.38332,-8.69537 19.38332,-19.38332c0,-10.68794 -8.69537,-19.38332 -19.38332,-19.38332zM314.40638,246.56499h-5.90313v-23.13085h5.90313c6.37706,0 11.56542,5.18804 11.56542,11.56542c0,6.37738 -5.18836,11.56542 -11.56542,11.56542z" data-paper-data="{&quot;glyphName&quot;:&quot;&quot;,&quot;glyphIndex&quot;:4,&quot;word&quot;:2}"></path><path d="M338.74885,254.38283h13.67744c10.68794,0 19.38364,-8.69537 19.38364,-19.38332c0,-10.68794 -8.6957,-19.38332 -19.38364,-19.38332h-13.67744c-0.02228,0 -0.04036,0.01808 -0.04036,0.04036v38.68593c0,0.02228 0.01776,0.04036 0.04035,0.04036zM346.52349,223.43409h5.90281c6.37738,0 11.56542,5.18836 11.56542,11.56542c0,6.37706 -5.18804,11.56542 -11.56542,11.56542h-5.90281z" data-paper-data="{&quot;glyphName&quot;:&quot;D&quot;,&quot;glyphIndex&quot;:5,&quot;word&quot;:2}"></path><path d="M376.75086,254.38283h33.02105c0.02228,0 0.04036,-0.01808 0.04036,-0.04036v-7.73718c0,-0.02228 -0.01808,-0.04036 -0.04036,-0.04036h-25.24319v-7.65648h17.50891c0.02228,0 0.04036,-0.01808 0.04036,-0.04036v-7.73718c0,-0.02228 -0.01808,-0.04036 -0.04036,-0.04036h-17.50891v-7.65648h25.24319c0.02228,0 0.04036,-0.01808 0.04036,-0.04036v-7.73718c0,-0.02228 -0.01808,-0.04036 -0.04036,-0.04036h-33.02105c-0.02228,0 -0.04036,0.01808 -0.04036,0.04036v38.68593c0,0.02228 0.01808,0.04036 0.04036,0.04036z" data-paper-data="{&quot;glyphName&quot;:&quot;E&quot;,&quot;glyphIndex&quot;:6,&quot;word&quot;:2}"></path><path d="M414.75351,254.3838h7.73525c0.02228,0 0.04036,-0.01808 0.04036,-0.04036v-8.4342h10.13847c0.24762,0 0.49588,-0.00678 0.73963,-0.01872l5.24034,8.47423c0.0071,0.01195 0.02034,0.01905 0.03422,0.01905h9.09118c0.01453,0 0.02809,-0.00807 0.03519,-0.02066c0.00678,-0.01291 0.00678,-0.02841 -0.00097,-0.04068l-6.76544,-10.9417c4.24018,-2.81387 6.77125,-7.52669 6.77125,-12.61756c0,-8.35155 -6.79449,-15.14604 -15.14604,-15.14604h-17.91407c-0.02228,0 -0.04036,0.01808 -0.04036,0.04036v38.68593c0.00065,0.02228 0.01873,0.04036 0.041,0.04036zM436.89292,236.75157c-1.23389,0.8778 -2.69507,1.34172 -4.22533,1.34172h-10.13847v-14.66017h10.13847c4.04196,0 7.33008,3.28845 7.33008,7.33008c0,2.37707 -1.16029,4.61564 -3.10475,5.98836z" data-paper-data="{&quot;glyphName&quot;:&quot;R&quot;,&quot;glyphIndex&quot;:7,&quot;word&quot;:2}"></path><path d="M473.35451,246.56817h-9.82435c-2.11234,0 -3.8305,-1.71848 -3.8305,-3.8305c0,-0.02228 -0.01808,-0.04036 -0.04036,-0.04036h-7.73428c-0.02228,0 -0.04036,0.01808 -0.04036,0.04036c0,6.42129 5.2242,11.64549 11.64549,11.64549h9.82435c6.42161,0 11.64549,-5.2242 11.64549,-11.64549c0,-6.42129 -5.2242,-11.64549 -11.64549,-11.64549h-9.82435c-2.11234,0 -3.8305,-1.71848 -3.8305,-3.8305c0,-2.11202 1.71815,-3.8305 3.8305,-3.8305h9.82435c2.11234,0 3.8305,1.71848 3.8305,3.8305c0,0.02228 0.01808,0.04036 0.04036,0.04036h7.73428c0.02228,0 0.04036,-0.01808 0.04036,-0.04036c0,-6.42129 -5.2242,-11.64549 -11.64549,-11.64549h-9.82435c-6.42161,0 -11.64549,5.2242 -11.64549,11.64549c0,6.42129 5.2242,11.64549 11.64549,11.64549h9.82435c2.11234,0 3.8305,1.71848 3.8305,3.8305c0,2.11202 -1.71815,3.8305 -3.8305,3.8305z" data-paper-data="{&quot;glyphName&quot;:&quot;S&quot;,&quot;glyphIndex&quot;:8,&quot;lastGlyphOfWord&quot;:true,&quot;word&quot;:2}"></path></g></g></g></svg>