<svg xmlns:mydata="http://www.w3.org/2000/svg" mydata:contrastcolor="003087" mydata:template="Default" mydata:presentation="2.5" mydata:layouttype="undefined" mydata:specialfontid="undefined" mydata:id1="769" mydata:id2="769" mydata:companyname="Cool Codders" mydata:companytagline="" version="1.1" xmlns="http://www.w3.org/2000/svg" xmlns:xlink="http://www.w3.org/1999/xlink" viewBox="0 0 550 470">
	<g fill="none" fill-rule="nonzero" stroke="none" stroke-width="1" stroke-linecap="butt" stroke-linejoin="miter" stroke-miterlimit="10" stroke-dasharray="" stroke-dashoffset="0" font-family="none" font-weight="none" font-size="none" text-anchor="none" style="mix-blend-mode: normal">
		<g data-paper-data="{&quot;isGlobalGroup&quot;:true,&quot;bounds&quot;:{&quot;x&quot;:99.4804573472622,&quot;y&quot;:168.44069815557305,&quot;width&quot;:351.0390853054756,&quot;height&quot;:133.1186036888539}}">
			<g data-paper-data="{&quot;stacked&quot;:true,&quot;isPrimaryText&quot;:true}">
				<path d="M201.30077,222.17014c6.88111,0 13.76222,-2.61907 19.00082,-7.85767c0.02148,-0.02193 0.02148,-0.05729 0,-0.07922l-7.58422,-7.58466c-0.02104,-0.02104 -0.05773,-0.02104 -0.07966,0c-6.25096,6.25141 -16.42292,6.25141 -22.67388,0c-3.02858,-3.02814 -4.69616,-7.05431 -4.69616,-11.33694c0,-4.28262 1.66803,-8.3088 4.69616,-11.33739c6.25096,-6.25141 16.42292,-6.25141 22.67388,0c0.02193,0.02104 0.05863,0.02104 0.07966,0l7.58422,-7.58466c0.02148,-0.02193 0.02148,-0.05729 0,-0.07922c-10.47719,-10.47719 -27.52445,-10.47719 -38.00164,0c-5.07524,5.07524 -7.8702,11.82298 -7.8702,19.00082c0,7.17784 2.79496,13.92558 7.8702,19.00082c5.2386,5.23904 12.11971,7.85812 19.00082,7.85812z" data-paper-data="{&quot;glyphName&quot;:&quot;C&quot;,&quot;glyphIndex&quot;:0,&quot;firstGlyphOfWord&quot;:true,&quot;word&quot;:1,&quot;line&quot;:1,&quot;firstGlyphOfFirstLine&quot;:true}" fill="#FFFFFF"></path>
				<path d="M253.98505,222.18401c14.81576,0 26.86878,-12.05526 26.86878,-26.87326c0,-14.81576 -12.05347,-26.86878 -26.86878,-26.86878c-14.81755,0 -26.87326,12.05347 -26.87326,26.86878c0,14.818 12.05526,26.87326 26.87326,26.87326zM237.9515,195.31076c0,-8.84094 7.19261,-16.03355 16.03355,-16.03355c8.84094,0 16.03355,7.19261 16.03355,16.03355c0,8.84094 -7.19261,16.03355 -16.03355,16.03355c-8.84094,0 -16.03355,-7.19261 -16.03355,-16.03355z" data-paper-data="{&quot;glyphName&quot;:&quot;O&quot;,&quot;glyphIndex&quot;:1,&quot;word&quot;:1,&quot;line&quot;:1}" fill="#FFFFFF"></path>
				<path d="M317.80882,201.44591c3.40067,-8.20976 -0.49787,-17.62187 -8.70763,-21.02253c-8.20976,-3.40067 -17.62187,0.49787 -21.02253,8.70763c-3.40067,8.20976 0.49787,17.62187 8.70763,21.02253c8.20976,3.40067 17.62187,-0.49787 21.02253,-8.70763zM375.5143,211.34482h-34.99409v-42.84818c0,-0.03088 -0.02506,-0.05594 -0.05594,-0.05594h-37.53887c-0.03088,0 -0.05594,0.02506 -0.05594,0.05594c0,0.03088 0.02506,0.05594 0.05594,0.05594c14.754,0 26.75689,12.0029 26.75689,26.75689v26.81731c0,0.03088 0.02506,0.05594 0.05594,0.05594h45.77606c0.03088,0 0.05594,-0.02506 0.05594,-0.05594v-10.72603c0,-0.03088 -0.02506,-0.05594 -0.05594,-0.05594z" data-paper-data="{&quot;glyphName&quot;:&quot;&quot;,&quot;glyphIndex&quot;:2,&quot;lastGlyphOfWord&quot;:true,&quot;word&quot;:1,&quot;line&quot;:1,&quot;lastGlyphOfFirstLine&quot;:true}" fill="#FFFFFF"></path>
				<path d="M126.35148,301.54542c6.88111,0 13.76222,-2.61907 19.00082,-7.85767c0.02148,-0.02193 0.02148,-0.05729 0,-0.07922l-7.58422,-7.58466c-0.02104,-0.02104 -0.05773,-0.02104 -0.07966,0c-6.25096,6.25141 -16.42292,6.25141 -22.67388,0c-3.02858,-3.02814 -4.69616,-7.05431 -4.69616,-11.33694c0,-4.28262 1.66803,-8.3088 4.69616,-11.33739c6.25096,-6.25141 16.42292,-6.25141 22.67388,0c0.02193,0.02104 0.05863,0.02104 0.07966,0l7.58422,-7.58466c0.02148,-0.02193 0.02148,-0.05729 0,-0.07922c-10.47719,-10.47719 -27.52445,-10.47719 -38.00164,0c-5.07524,5.07524 -7.8702,11.82298 -7.8702,19.00082c0,7.17784 2.79496,13.92558 7.8702,19.00082c5.2386,5.23904 12.11971,7.85812 19.00082,7.85812z" data-paper-data="{&quot;glyphName&quot;:&quot;C&quot;,&quot;glyphIndex&quot;:3,&quot;firstGlyphOfWord&quot;:true,&quot;word&quot;:2,&quot;line&quot;:2,&quot;firstGlyphOfSecondLine&quot;:true}" fill="#FFFFFF"></path>
				<path d="M168.25199,290.77426c8.88598,0 16.08949,-7.20351 16.08949,-16.08949c0,-8.88598 -7.20351,-16.08949 -16.08949,-16.08949c-8.88598,0 -16.08949,7.20351 -16.08949,16.08949c0,8.88598 7.20351,16.08949 16.08949,16.08949zM214.02626,247.81598h-18.96143c-0.03088,0 -0.05594,0.02506 -0.05594,0.05594v26.81284c0,14.75624 -12.0029,26.76137 -26.75689,26.76137c-0.03088,0 -0.05594,0.02506 -0.05594,0.05594c0,0.03088 0.02506,0.05594 0.05594,0.05594h45.77427c14.81666,0 26.87102,-12.05437 26.87102,-26.87102c0,-14.81666 -12.05437,-26.87102 -26.87102,-26.87102zM214.02626,290.72011h-8.18349v-32.0662h8.18349c8.84049,0 16.0331,7.19216 16.0331,16.0331c0,8.84094 -7.19261,16.0331 -16.0331,16.0331z" data-paper-data="{&quot;glyphName&quot;:&quot;&quot;,&quot;glyphIndex&quot;:4,&quot;word&quot;:2,&quot;line&quot;:2}" fill="#FFFFFF"></path>
				<path d="M247.77214,301.55795h18.96099c14.81666,0 26.87147,-12.05437 26.87147,-26.87102c0,-14.81666 -12.05481,-26.87102 -26.87147,-26.87102h-18.96099c-0.03088,0 -0.05594,0.02506 -0.05594,0.05594v53.63015c0,0.03088 0.02462,0.05594 0.05594,0.05594zM258.55008,258.65384h8.18304c8.84094,0 16.0331,7.19261 16.0331,16.0331c0,8.84049 -7.19216,16.0331 -16.0331,16.0331h-8.18304z" data-paper-data="{&quot;glyphName&quot;:&quot;D&quot;,&quot;glyphIndex&quot;:5,&quot;word&quot;:2,&quot;line&quot;:2}" fill="#FFFFFF"></path>
				<path d="M300.45417,301.55795h45.77696c0.03088,0 0.05594,-0.02506 0.05594,-0.05594v-10.72603c0,-0.03088 -0.02506,-0.05594 -0.05594,-0.05594h-34.99454v-10.61414h24.27253c0.03088,0 0.05594,-0.02506 0.05594,-0.05594v-10.72603c0,-0.03088 -0.02506,-0.05594 -0.05594,-0.05594h-24.27253v-10.61414h34.99454c0.03088,0 0.05594,-0.02506 0.05594,-0.05594v-10.72603c0,-0.03088 -0.02506,-0.05594 -0.05594,-0.05594h-45.77696c-0.03088,0 -0.05594,0.02506 -0.05594,0.05594v53.63015c0,0.03088 0.02506,0.05594 0.05594,0.05594z" data-paper-data="{&quot;glyphName&quot;:&quot;E&quot;,&quot;glyphIndex&quot;:6,&quot;word&quot;:2,&quot;line&quot;:2}" fill="#FFFFFF"></path>
				<path d="M353.13711,301.5593h10.72335c0.03088,0 0.05594,-0.02506 0.05594,-0.05594v-11.69229h14.05492c0.34327,0 0.68744,-0.0094 1.02534,-0.02596l7.26466,11.74779c0.00985,0.01656 0.0282,0.02641 0.04744,0.02641h12.60306c0.02014,0 0.03894,-0.01119 0.04878,-0.02864c0.0094,-0.0179 0.0094,-0.03938 -0.00134,-0.05639l-9.3789,-15.16843c5.87815,-3.90086 9.38696,-10.43423 9.38696,-17.49167c0,-11.57772 -9.41918,-20.9969 -20.9969,-20.9969h-24.83421c-0.03088,0 -0.05594,0.02506 -0.05594,0.05594v53.63015c0.0009,0.03088 0.02596,0.05594 0.05684,0.05594zM383.82888,277.1158c-1.71054,1.21689 -3.73616,1.86003 -5.85756,1.86003h-14.05492v-20.32333h14.05492c5.60335,0 10.16167,4.55876 10.16167,10.16167c0,3.29533 -1.6085,6.39865 -4.30411,8.30164z" data-paper-data="{&quot;glyphName&quot;:&quot;R&quot;,&quot;glyphIndex&quot;:7,&quot;word&quot;:2,&quot;line&quot;:2}" fill="#FFFFFF"></path>
				<path d="M434.37545,290.72451h-13.61945c-2.92833,0 -5.31021,-2.38232 -5.31021,-5.31021c0,-0.03088 -0.02506,-0.05594 -0.05594,-0.05594h-10.722c-0.03088,0 -0.05594,0.02506 -0.05594,0.05594c0,8.90181 7.24229,16.14409 16.14409,16.14409h13.61945c8.90226,0 16.14409,-7.24229 16.14409,-16.14409c0,-8.90181 -7.24229,-16.14409 -16.14409,-16.14409h-13.61945c-2.92833,0 -5.31021,-2.38232 -5.31021,-5.31021c0,-2.92789 2.38187,-5.31021 5.31021,-5.31021h13.61945c2.92833,0 5.31021,2.38232 5.31021,5.31021c0,0.03088 0.02506,0.05594 0.05594,0.05594h10.722c0.03088,0 0.05594,-0.02506 0.05594,-0.05594c0,-8.90181 -7.24229,-16.14409 -16.14409,-16.14409h-13.61945c-8.90226,0 -16.14409,7.24229 -16.14409,16.14409c0,8.90181 7.24229,16.14409 16.14409,16.14409h13.61945c2.92833,0 5.31021,2.38232 5.31021,5.31021c0,2.92789 -2.38187,5.31021 -5.31021,5.31021z" data-paper-data="{&quot;glyphName&quot;:&quot;S&quot;,&quot;glyphIndex&quot;:8,&quot;lastGlyphOfWord&quot;:true,&quot;word&quot;:2,&quot;line&quot;:2,&quot;lastGlyphOfSecondLine&quot;:true}" fill="#FFFFFF"></path>
			</g>
		</g>
	</g>
</svg>