<svg xmlns:mydata="http://www.w3.org/2000/svg" mydata:contrastcolor="003087" mydata:template="Default" mydata:presentation="2.5" mydata:layouttype="undefined" mydata:specialfontid="undefined" mydata:id1="769" mydata:id2="769" mydata:companyname="Cool Codders" mydata:companytagline="" version="1.1" xmlns="http://www.w3.org/2000/svg" xmlns:xlink="http://www.w3.org/1999/xlink" viewBox="0 0 550 470"><g fill="none" fill-rule="nonzero" stroke="none" stroke-width="1" stroke-linecap="butt" stroke-linejoin="miter" stroke-miterlimit="10" stroke-dasharray="" stroke-dashoffset="0" font-family="none" font-weight="none" font-size="none" text-anchor="none" style="mix-blend-mode: normal"><g data-paper-data="{&quot;isGlobalGroup&quot;:true,&quot;bounds&quot;:{&quot;x&quot;:112.28962503582056,&quot;y&quot;:157.73894203355002,&quot;width&quot;:325.4207499283589,&quot;height&quot;:154.52211593289996}}"><g data-paper-data="{&quot;stacked&quot;:true,&quot;isPrimaryText&quot;:true}"><path d="M155.76365,244.66661c11.1328,0 22.2656,-4.23734 30.741,-12.71275c0.03476,-0.03548 0.03476,-0.09268 0,-0.12816l-12.27033,-12.27106c-0.03403,-0.03403 -0.09341,-0.03403 -0.12889,0c-10.11329,10.11401 -26.57028,10.11401 -36.68356,0c-4.89988,-4.89916 -7.59782,-11.41302 -7.59782,-18.34178c0,-6.92876 2.69866,-13.44263 7.59782,-18.34251c10.11329,-10.11401 26.57028,-10.11401 36.68356,0c0.03548,0.03403 0.09485,0.03403 0.12889,0l12.27033,-12.27106c0.03476,-0.03548 0.03476,-0.09268 0,-0.12816c-16.95082,-16.95082 -44.53119,-16.95082 -61.48201,0c-8.21112,8.21112 -12.73302,19.12814 -12.73302,30.741c0,11.61287 4.52191,22.52989 12.73302,30.741c8.47541,8.47613 19.6082,12.71347 30.741,12.71347z" data-paper-data="{&quot;glyphName&quot;:&quot;C&quot;,&quot;glyphIndex&quot;:0,&quot;firstGlyphOfWord&quot;:true,&quot;word&quot;:1,&quot;line&quot;:1,&quot;firstGlyphOfFirstLine&quot;:true}" fill="#0085ca"></path><path d="M241.00037,244.68906c23.97009,0 43.47041,-19.50394 43.47041,-43.47765c0,-23.97009 -19.50104,-43.47041 -43.47041,-43.47041c-23.97299,0 -43.47765,19.50104 -43.47765,43.47041c0,23.97371 19.50394,43.47765 43.47765,43.47765zM215.06005,201.21141c0,-14.30356 11.63676,-25.94032 25.94032,-25.94032c14.30356,0 25.94032,11.63676 25.94032,25.94032c0,14.30356 -11.63676,25.94032 -25.94032,25.94032c-14.30356,0 -25.94032,-11.63676 -25.94032,-25.94032z" data-paper-data="{&quot;glyphName&quot;:&quot;O&quot;,&quot;glyphIndex&quot;:1,&quot;word&quot;:1,&quot;line&quot;:1}" fill="#0085ca"></path><path d="M344.25944,211.13734c5.50186,-13.28239 -0.8055,-28.51003 -14.08789,-34.01189c-13.28239,-5.50186 -28.51003,0.8055 -34.01189,14.08789c-5.50186,13.28239 0.8055,28.51003 14.08789,34.01189c13.28239,5.50186 28.51003,-0.8055 34.01189,-14.08789zM437.61986,227.15257h-56.61616v-69.32311c0,-0.04996 -0.04055,-0.09051 -0.09051,-0.09051h-60.7333c-0.04996,0 -0.09051,0.04055 -0.09051,0.09051c0,0.04996 0.04055,0.09051 0.09051,0.09051c23.87017,0 43.28939,19.41922 43.28939,43.28939v43.38714c0,0.04996 0.04055,0.09051 0.09051,0.09051h74.06008c0.04996,0 0.09051,-0.04055 0.09051,-0.09051v-17.35341c0,-0.04996 -0.04055,-0.09051 -0.09051,-0.09051z" data-paper-data="{&quot;glyphName&quot;:&quot;&quot;,&quot;glyphIndex&quot;:2,&quot;lastGlyphOfWord&quot;:true,&quot;word&quot;:1,&quot;line&quot;:1,&quot;lastGlyphOfFirstLine&quot;:true}" fill="#0085ca"></path><path d="M137.19964,312.24819c6.37894,0 12.75788,-2.42794 17.61417,-7.28423c0.01991,-0.02033 0.01991,-0.05311 0,-0.07343l-7.03073,-7.03114c-0.0195,-0.0195 -0.05352,-0.0195 -0.07385,0c-5.79477,5.79519 -15.2244,5.79519 -21.01917,0c-2.80756,-2.80715 -4.35344,-6.5395 -4.35344,-10.50959c0,-3.97008 1.5463,-7.70244 4.35344,-10.51c5.79477,-5.79519 15.2244,-5.79519 21.01917,0c0.02033,0.0195 0.05435,0.0195 0.07385,0l7.03073,-7.03114c0.01991,-0.02033 0.01991,-0.05311 0,-0.07343c-9.71258,-9.71258 -25.51575,-9.71258 -35.22833,0c-4.70486,4.70486 -7.29584,10.96016 -7.29584,17.61417c0,6.65401 2.59099,12.90931 7.29585,17.61417c4.85629,4.85671 11.23523,7.28464 17.61417,7.28464z" data-paper-data="{&quot;glyphName&quot;:&quot;C&quot;,&quot;glyphIndex&quot;:3,&quot;firstGlyphOfWord&quot;:true,&quot;word&quot;:2,&quot;line&quot;:2,&quot;firstGlyphOfSecondLine&quot;:true}" fill="#e35205"></path><path d="M176.04231,302.26309c8.2375,0 14.9153,-6.67781 14.9153,-14.9153c0,-8.2375 -6.67781,-14.9153 -14.9153,-14.9153c-8.2375,0 -14.9153,6.67781 -14.9153,14.9153c0,8.2375 6.67781,14.9153 14.9153,14.9153zM218.47604,262.43985h-17.57766c-0.02863,0 -0.05186,0.02323 -0.05186,0.05186v24.85608c0,13.67935 -11.12694,24.80836 -24.80421,24.80836c-0.02863,0 -0.05186,0.02323 -0.05186,0.05186c0,0.02863 0.02323,0.05186 0.05186,0.05186h42.43373c13.73536,0 24.91001,-11.17465 24.91001,-24.91001c0,-13.73536 -11.17465,-24.91001 -24.91001,-24.91001zM218.47604,302.21289h-7.58627v-29.72606h7.58627c8.19533,0 14.86303,6.66729 14.86303,14.86303c0,8.19574 -6.6677,14.86303 -14.86303,14.86303z" data-paper-data="{&quot;glyphName&quot;:&quot;&quot;,&quot;glyphIndex&quot;:4,&quot;word&quot;:2,&quot;line&quot;:2}" fill="#e35205"></path><path d="M249.75919,312.25981h17.57724c13.73536,0 24.91043,-11.17465 24.91043,-24.91001c0,-13.73536 -11.17507,-24.91001 -24.91043,-24.91001h-17.57724c-0.02863,0 -0.05186,0.02323 -0.05186,0.05186v49.7163c0,0.02863 0.02282,0.05186 0.05186,0.05186zM259.75057,272.48677h7.58585c8.19574,0 14.86303,6.6677 14.86303,14.86303c0,8.19533 -6.66729,14.86303 -14.86303,14.86303h-7.58585z" data-paper-data="{&quot;glyphName&quot;:&quot;D&quot;,&quot;glyphIndex&quot;:5,&quot;word&quot;:2,&quot;line&quot;:2}" fill="#e35205"></path><path d="M298.59656,312.25981h42.43622c0.02863,0 0.05186,-0.02323 0.05186,-0.05186v-9.94326c0,-0.02863 -0.02323,-0.05186 -0.05186,-0.05186h-32.44068v-9.83954h22.50116c0.02863,0 0.05186,-0.02323 0.05186,-0.05186v-9.94326c0,-0.02863 -0.02323,-0.05186 -0.05186,-0.05186h-22.50116v-9.83954h32.44068c0.02863,0 0.05186,-0.02323 0.05186,-0.05186v-9.94326c0,-0.02863 -0.02323,-0.05186 -0.05186,-0.05186h-42.43622c-0.02863,0 -0.05186,0.02323 -0.05186,0.05186v49.7163c0,0.02863 0.02323,0.05186 0.05186,0.05186z" data-paper-data="{&quot;glyphName&quot;:&quot;E&quot;,&quot;glyphIndex&quot;:6,&quot;word&quot;:2,&quot;line&quot;:2}" fill="#e35205"></path><path d="M347.43477,312.26105h9.94077c0.02863,0 0.05186,-0.02323 0.05186,-0.05186v-10.83901h13.02921c0.31822,0 0.63727,-0.00871 0.95051,-0.02406l6.7345,10.89045c0.00913,0.01535 0.02614,0.02448 0.04398,0.02448h11.68331c0.01867,0 0.0361,-0.01037 0.04522,-0.02655c0.00871,-0.01659 0.00871,-0.03651 -0.00125,-0.05228l-8.69444,-14.06146c5.44917,-3.61618 8.70191,-9.67275 8.70191,-16.21515c0,-10.7328 -8.73178,-19.46458 -19.46458,-19.46458h-23.02184c-0.02863,0 -0.05186,0.02323 -0.05186,0.05186v49.7163c0.00083,0.02863 0.02406,0.05186 0.05269,0.05186zM375.8867,289.60141c-1.58571,1.12809 -3.4635,1.72428 -5.43008,1.72428h-13.02921v-18.84017h13.02921c5.19443,0 9.42008,4.22607 9.42008,9.42008c0,3.05484 -1.49112,5.93169 -3.99,7.6958z" data-paper-data="{&quot;glyphName&quot;:&quot;R&quot;,&quot;glyphIndex&quot;:7,&quot;word&quot;:2,&quot;line&quot;:2}" fill="#e35205"></path><path d="M422.74445,302.21698h-12.62553c-2.71463,0 -4.92267,-2.20846 -4.92267,-4.92267c0,-0.02863 -0.02323,-0.05186 -0.05186,-0.05186h-9.93953c-0.02863,0 -0.05186,0.02323 -0.05186,0.05186c0,8.25217 6.71375,14.96592 14.96592,14.96592h12.62553c8.25258,0 14.96592,-6.71375 14.96592,-14.96592c0,-8.25217 -6.71375,-14.96592 -14.96592,-14.96592h-12.62553c-2.71463,0 -4.92267,-2.20846 -4.92267,-4.92267c0,-2.71421 2.20805,-4.92267 4.92267,-4.92267h12.62553c2.71463,0 4.92267,2.20846 4.92267,4.92267c0,0.02863 0.02323,0.05186 0.05186,0.05186h9.93953c0.02863,0 0.05186,-0.02323 0.05186,-0.05186c0,-8.25217 -6.71375,-14.96592 -14.96592,-14.96592h-12.62553c-8.25258,0 -14.96592,6.71375 -14.96592,14.96592c0,8.25217 6.71375,14.96592 14.96592,14.96592h12.62553c2.71463,0 4.92267,2.20846 4.92267,4.92267c0,2.71421 -2.20805,4.92267 -4.92267,4.92267z" data-paper-data="{&quot;glyphName&quot;:&quot;S&quot;,&quot;glyphIndex&quot;:8,&quot;lastGlyphOfWord&quot;:true,&quot;word&quot;:2,&quot;line&quot;:2,&quot;lastGlyphOfSecondLine&quot;:true}" fill="#e35205"></path></g></g></g></svg>