<svg xmlns:mydata="http://www.w3.org/2000/svg" mydata:contrastcolor="68D2DF" mydata:template="Default" mydata:presentation="2.5" mydata:layouttype="undefined" mydata:specialfontid="undefined" mydata:id1="027" mydata:id2="245" mydata:companyname="Cool Codders" mydata:companytagline="" version="1.1" xmlns="http://www.w3.org/2000/svg" xmlns:xlink="http://www.w3.org/1999/xlink" viewBox="0 0 550 470">
	<g fill="#fff" fill-rule="none" stroke="none" stroke-width="1" stroke-linecap="butt" stroke-linejoin="miter" stroke-miterlimit="10" stroke-dasharray="" stroke-dashoffset="0" font-family="none" font-weight="none" font-size="none" text-anchor="none" style="mix-blend-mode: normal">
		<g data-paper-data="{&quot;isGlobalGroup&quot;:true,&quot;}">
			<g data-paper-data="{&quot;fillRule&quot;:&quot;evenodd&quot;,&quot;isIcon&quot;:&quot;true&quot;,&quot;iconType&quot;:&quot;icon&quot;,&quot;rawIconId&quot;:&quot;115122&quot;,&quot;combineTerms&quot;:&quot;C&quot;,&quot;selectedEffects&quot;:{&quot;container&quot;:&quot;&quot;,&quot;transformation&quot;:&quot;&quot;,&quot;pattern&quot;:&quot;&quot;},&quot;iconStyle&quot;:&quot;standalone&quot;,&quot;&quot;suitableAsStandaloneIcon&quot;:true}" fill-rule="evenodd">
				<path d="M137.7673,288.45671c24.40729,-5.85071 42.81596,-26.97411 42.81596,-52.94939c0,-29.82832 -24.26078,-54.0891 -54.09051,-54.0891c-29.82973,0 -54.09051,24.26078 -54.09051,54.0891c0,25.97528 18.41148,47.38185 42.81596,52.94939c2.99509,0.71144 5.70983,-1.71309 5.70983,-4.7124c0,-2.28083 -1.5708,-4.13762 -3.71216,-4.56589c-20.12316,-4.13903 -35.25075,-22.26452 -35.25075,-43.6725c0,-24.68905 19.98088,-44.66993 44.52764,-44.66993c24.68905,0 44.67133,19.98088 44.67133,44.66993c0,21.40798 -15.129,39.53348 -35.39445,43.6725c-2.14136,0.42687 -3.71075,2.28506 -3.71075,4.56589c0,2.99931 2.85562,5.42384 5.70842,4.7124zM143.33343,213.95705c1.85397,-1.85537 1.85397,-4.85188 0,-6.70725c-4.28131,-4.42501 -10.70399,-6.99324 -16.84068,-6.99324c-13.12852,0 -23.69163,10.70399 -23.69163,23.69022v23.12107c0,13.12852 10.56311,23.8325 23.69163,23.8325c6.13669,0 12.12968,-2.42453 16.84068,-6.99324c1.85397,-1.85537 1.85397,-4.85328 0,-6.70725c-1.85679,-1.85537 -4.85328,-1.85537 -6.70866,0c-2.8528,2.71192 -6.42127,4.13903 -10.13202,4.13903c-7.84837,0 -14.27104,-6.42267 -14.27104,-14.27104v-23.12107c0,-7.70609 6.42267,-14.12876 14.27104,-14.12876c3.70934,0 7.27922,1.4271 10.13202,4.13903c1.85679,1.85537 4.85328,1.85537 6.70866,0z" data-paper-data="{&quot;isPathIcon&quot;:true}"></path>
			</g>
		</g>
	</g>
</svg>