<svg xmlns:mydata="http://www.w3.org/2000/svg" mydata:contrastcolor="68D2DF" mydata:template="Default" mydata:presentation="2.5" mydata:layouttype="undefined" mydata:specialfontid="undefined" mydata:id1="027" mydata:id2="245" mydata:companyname="Cool Codders" mydata:companytagline="" version="1.1" xmlns="http://www.w3.org/2000/svg" xmlns:xlink="http://www.w3.org/1999/xlink" viewBox="0 0 550 470">
	<g fill="#1a73e8" fill-rule="none" stroke="none" stroke-width="1" stroke-linecap="butt" stroke-linejoin="miter" stroke-miterlimit="10" stroke-dasharray="" stroke-dashoffset="0" font-family="none" font-weight="none" font-size="none" text-anchor="none" style="mix-blend-mode: normal">
		<g data-paper-data="{&quot;isGlobalGroup&quot;:true,&quot;bounds&quot;:{&quot;x&quot;:72.40224011829596,&quot;y&quot;:181.4182183953149,&quot;width&quot;:405.19551976340813,&quot;height&quot;:107.16356320937018}}">
			<g data-paper-data="{&quot;stacked&quot;:true,&quot;isPrimaryText&quot;:true}" fill-rule="nonzero">
				<path d="M223.14489,215.29526c0,-4.40485 0.64742,-8.34381 1.94225,-11.81687c1.29483,-3.47306 3.10397,-6.40761 5.42741,-8.80366c2.32344,-2.39605 5.08857,-4.22938 8.2954,-5.50002c3.20683,-1.27063 6.72224,-1.90595 10.54623,-1.90595c3.02531,0 5.65733,0.18757 7.89606,0.56271c2.23873,0.37514 4.09627,0.88944 5.57262,1.54291c1.47635,0.65347 2.57757,1.42795 3.30364,2.32344c0.72607,0.89549 1.08911,1.86359 1.08911,2.9043c0,0.70187 -0.14521,1.31299 -0.43564,1.83334c-0.29043,0.52035 -0.67162,0.94995 -1.14357,1.28878c-0.47195,0.33883 -0.99835,0.58691 -1.57921,0.74423c-0.58086,0.15732 -1.16172,0.23597 -1.74258,0.23597c-0.33883,0 -0.67767,-0.00605 -1.0165,-0.01815c-0.33883,-0.0121 -0.66557,-0.06656 -0.9802,-0.16337c-0.91969,-0.24202 -1.79703,-0.478 -2.63202,-0.70792c-0.83499,-0.22992 -1.65787,-0.42959 -2.46865,-0.59901c-0.81078,-0.16942 -1.62157,-0.30858 -2.43235,-0.41749c-0.81078,-0.10891 -1.65182,-0.16337 -2.52311,-0.16337c-1.81519,0 -3.52751,0.27228 -5.13698,0.81683c-1.60947,0.54456 -3.00716,1.5066 -4.19308,2.88615c-1.18592,1.37954 -2.12377,3.24918 -2.81354,5.60893c-0.68977,2.35974 -1.03466,5.3669 -1.03466,9.02148c0,2.80749 0.27833,5.3306 0.83499,7.56933c0.55666,2.23873 1.38559,4.13863 2.48681,5.69969c1.10121,1.56106 2.48076,2.75908 4.13863,3.59407c1.65787,0.83499 3.58802,1.25248 5.79045,1.25248c0.89549,0 1.82729,-0.09681 2.79539,-0.29043c0.9681,-0.19362 1.9604,-0.4417 2.97691,-0.74423c1.0165,-0.30253 2.05116,-0.64742 3.10397,-1.03466c1.05281,-0.38724 2.09957,-0.77448 3.14027,-1.16172c0.31463,-0.09681 0.70187,-0.14521 1.16172,-0.14521c0.60506,0 1.15567,0.11496 1.65182,0.34489c0.49615,0.22992 0.92575,0.53851 1.28878,0.92575c0.36304,0.38724 0.64137,0.84104 0.83499,1.36139c0.19362,0.52035 0.29043,1.07096 0.29043,1.65182c0,0.9439 -0.30858,1.80914 -0.92575,2.59572c-0.61716,0.78658 -1.434,1.4945 -2.4505,2.12377c-1.0165,0.62926 -2.18427,1.17987 -3.50331,1.65182c-1.31904,0.47195 -2.68043,0.86524 -4.08417,1.17987c-1.40374,0.31463 -2.80144,0.55061 -4.19308,0.70792c-1.39164,0.15732 -2.68043,0.23597 -3.86635,0.23597c-3.58197,0 -6.92191,-0.59901 -10.01983,-1.79703c-3.09792,-1.19802 -5.78439,-2.9527 -8.05943,-5.26404c-2.27503,-2.31134 -4.06602,-5.15513 -5.37295,-8.53138c-1.30693,-3.37625 -1.9604,-7.24259 -1.9604,-11.59904z" data-paper-data="{&quot;glyphName&quot;:&quot;C&quot;,&quot;glyphIndex&quot;:0,&quot;firstGlyphOfWord&quot;:true,&quot;word&quot;:1,&quot;line&quot;:1,&quot;firstGlyphOfFirstLine&quot;:true}">
				</path>
				<path d="M306.08682,214.89592c0,6.00222 0.956,10.53413 2.86799,13.59575c1.912,3.06161 4.901,4.59242 8.96702,4.59242c3.99341,0 6.97032,-1.52476 8.93072,-4.57427c1.9604,-3.04951 2.9406,-7.58748 2.9406,-13.6139c0,-2.9043 -0.23597,-5.48791 -0.70792,-7.75085c-0.47195,-2.26293 -1.19197,-4.16888 -2.16007,-5.71784c-0.9681,-1.54896 -2.19638,-2.72883 -3.68483,-3.53961c-1.48845,-0.81078 -3.26129,-1.21618 -5.3185,-1.21618c-2.03301,0 -3.79374,0.40539 -5.28219,1.21618c-1.48845,0.81078 -2.71673,1.99065 -3.68483,3.53961c-0.9681,1.54896 -1.68812,3.45491 -2.16007,5.71784c-0.47195,2.26293 -0.70792,4.84655 -0.70792,7.75085zM291.96467,214.89592c0,-3.99341 0.53851,-7.68429 1.61552,-11.07264c1.07701,-3.38835 2.69253,-6.30475 4.84655,-8.7492c2.15402,-2.44445 4.8526,-4.35645 8.09573,-5.73599c3.24313,-1.37954 7.04292,-2.06931 11.39937,-2.06931c4.23544,0 7.97472,0.66557 11.21785,1.99671c3.24313,1.33114 5.95381,3.21288 8.13204,5.64523c2.17822,2.43235 3.82399,5.3427 4.93731,8.73105c1.11331,3.38835 1.66997,7.13973 1.66997,11.25416c0,4.04182 -0.54456,7.7569 -1.63367,11.14525c-1.08911,3.38835 -2.72278,6.2987 -4.901,8.73105c-2.17822,2.43235 -4.8889,4.32619 -8.13204,5.68153c-3.24313,1.35534 -7.00662,2.03301 -11.29046,2.03301c-4.18703,0 -7.89606,-0.65347 -11.12709,-1.9604c-3.23103,-1.30693 -5.94776,-3.16448 -8.15019,-5.57262c-2.20243,-2.40815 -3.86635,-5.3064 -4.99176,-8.69474c-1.12542,-3.38835 -1.68812,-7.17604 -1.68812,-11.36307z" data-paper-data="{&quot;glyphName&quot;:&quot;O&quot;,&quot;glyphIndex&quot;:1,&quot;word&quot;:1,&quot;line&quot;:1}"></path>
				<path d="M379.04523,214.89592c0,6.00222 0.956,10.53413 2.86799,13.59575c1.912,3.06161 4.901,4.59242 8.96702,4.59242c3.99341,0 6.97032,-1.52476 8.93072,-4.57427c1.9604,-3.04951 2.9406,-7.58748 2.9406,-13.6139c0,-2.9043 -0.23597,-5.48791 -0.70792,-7.75085c-0.47195,-2.26293 -1.19197,-4.16888 -2.16007,-5.71784c-0.9681,-1.54896 -2.19638,-2.72883 -3.68483,-3.53961c-1.48845,-0.81078 -3.26129,-1.21618 -5.3185,-1.21618c-2.03301,0 -3.79374,0.40539 -5.28219,1.21618c-1.48845,0.81078 -2.71673,1.99065 -3.68483,3.53961c-0.9681,1.54896 -1.68812,3.45491 -2.16007,5.71784c-0.47195,2.26293 -0.70792,4.84655 -0.70792,7.75085zM364.92307,214.89592c0,-3.99341 0.53851,-7.68429 1.61552,-11.07264c1.07701,-3.38835 2.69253,-6.30475 4.84655,-8.7492c2.15402,-2.44445 4.8526,-4.35645 8.09573,-5.73599c3.24313,-1.37954 7.04292,-2.06931 11.39937,-2.06931c4.23544,0 7.97472,0.66557 11.21785,1.99671c3.24313,1.33114 5.95381,3.21288 8.13204,5.64523c2.17822,2.43235 3.82399,5.3427 4.93731,8.73105c1.11331,3.38835 1.66997,7.13973 1.66997,11.25416c0,4.04182 -0.54456,7.7569 -1.63367,11.14525c-1.08911,3.38835 -2.72278,6.2987 -4.901,8.73105c-2.17822,2.43235 -4.8889,4.32619 -8.13204,5.68153c-3.24313,1.35534 -7.00662,2.03301 -11.29046,2.03301c-4.18703,0 -7.89606,-0.65347 -11.12709,-1.9604c-3.23103,-1.30693 -5.94776,-3.16448 -8.15019,-5.57262c-2.20243,-2.40815 -3.86635,-5.3064 -4.99176,-8.69474c-1.12542,-3.38835 -1.68812,-7.17604 -1.68812,-11.36307z" data-paper-data="{&quot;glyphName&quot;:&quot;O&quot;,&quot;glyphIndex&quot;:2,&quot;word&quot;:1,&quot;line&quot;:1}"></path>
				<path d="M472.76936,231.55933c0.65347,0 1.27668,0.12706 1.86964,0.38119c0.59296,0.25413 1.10726,0.59901 1.54291,1.03466c0.43564,0.43564 0.78053,0.94995 1.03466,1.54291c0.25413,0.59296 0.38119,1.21618 0.38119,1.86964c0,0.65347 -0.12706,1.27668 -0.38119,1.86964c-0.25413,0.59296 -0.59901,1.10726 -1.03466,1.54291c-0.43564,0.43564 -0.94995,0.78053 -1.54291,1.03466c-0.59296,0.25413 -1.21618,0.38119 -1.86964,0.38119h-24.86806c-1.30693,0 -2.39605,-0.28438 -3.26734,-0.85314c-0.87129,-0.56876 -1.56711,-1.31904 -2.08746,-2.25083c-0.52035,-0.9318 -0.88339,-1.99065 -1.08911,-3.17658c-0.20572,-1.18592 -0.30858,-2.39605 -0.30858,-3.63037v-35.75918c0,-0.9923 0.17547,-1.91805 0.5264,-2.77724c0.35094,-0.85919 0.82894,-1.60947 1.434,-2.25083c0.60506,-0.64137 1.31299,-1.14357 2.12377,-1.5066c0.81078,-0.36304 1.68812,-0.54456 2.63202,-0.54456c0.9439,0 1.82124,0.18152 2.63202,0.54456c0.81078,0.36304 1.52476,0.86524 2.14192,1.5066c0.61716,0.64137 1.10121,1.39164 1.45215,2.25083c0.35094,0.85919 0.5264,1.78493 0.5264,2.77724l0.0363,36.0133z" data-paper-data="{&quot;glyphName&quot;:&quot;L&quot;,&quot;glyphIndex&quot;:3,&quot;lastGlyphOfWord&quot;:true,&quot;word&quot;:1,&quot;line&quot;:1,&quot;lastGlyphOfFirstLine&quot;:true}"></path>
				<path d="M223.14489,267.68423c0,-2.43752 0.35826,-4.61722 1.07479,-6.53911c0.71652,-1.92189 1.71765,-3.54579 3.00337,-4.87169c1.28572,-1.3259 2.81587,-2.34042 4.59044,-3.04355c1.77457,-0.70313 3.71989,-1.0547 5.83598,-1.0547c1.67412,0 3.1306,0.1038 4.36945,0.31139c1.23885,0.20759 2.26676,0.49219 3.08373,0.8538c0.81697,0.36161 1.42635,0.79018 1.82814,1.28572c0.40179,0.49554 0.60268,1.03126 0.60268,1.60716c0,0.3884 -0.08036,0.72657 -0.24107,1.01452c-0.16072,0.28795 -0.37165,0.52567 -0.63282,0.71318c-0.26116,0.1875 -0.55246,0.32478 -0.87389,0.41183c-0.32143,0.08705 -0.64286,0.13058 -0.96429,0.13058c-0.1875,0 -0.375,-0.00335 -0.5625,-0.01004c-0.1875,-0.0067 -0.36831,-0.03683 -0.54241,-0.0904c-0.50893,-0.13393 -0.99443,-0.26451 -1.45648,-0.39174c-0.46206,-0.12723 -0.91742,-0.23773 -1.36608,-0.33148c-0.44866,-0.09375 -0.89733,-0.17076 -1.34599,-0.23103c-0.44866,-0.06027 -0.91407,-0.0904 -1.39622,-0.0904c-1.00447,0 -1.95202,0.15067 -2.84266,0.45201c-0.89063,0.30134 -1.66408,0.83371 -2.32033,1.59711c-0.65626,0.7634 -1.17523,1.79801 -1.55693,3.10382c-0.3817,1.30581 -0.57255,2.96989 -0.57255,4.99223c0,1.55358 0.15402,2.9498 0.46206,4.18865c0.30804,1.23885 0.76675,2.2902 1.37613,3.15404c0.60938,0.86385 1.37278,1.5268 2.2902,1.98885c0.91742,0.46206 1.98551,0.69309 3.20427,0.69309c0.49554,0 1.01117,-0.05357 1.54689,-0.16072c0.53572,-0.10714 1.08483,-0.24442 1.64733,-0.41183c0.5625,-0.16741 1.13505,-0.35826 1.71765,-0.57255c0.58259,-0.21429 1.16184,-0.42857 1.73774,-0.64286c0.17411,-0.05357 0.3884,-0.08036 0.64286,-0.08036c0.33482,0 0.63951,0.06362 0.91407,0.19085c0.27456,0.12723 0.51228,0.29799 0.71318,0.51228c0.20089,0.21429 0.35491,0.46541 0.46206,0.75335c0.10714,0.28795 0.16072,0.59264 0.16072,0.91407c0,0.52233 -0.17076,1.00112 -0.51228,1.4364c-0.34152,0.43527 -0.79353,0.82702 -1.35604,1.17523c-0.5625,0.34822 -1.20871,0.65291 -1.93863,0.91407c-0.72992,0.26116 -1.48327,0.4788 -2.26006,0.65291c-0.77679,0.17411 -1.55024,0.30469 -2.32033,0.39174c-0.7701,0.08705 -1.48327,0.13058 -2.13953,0.13058c-1.98216,0 -3.83039,-0.33148 -5.54469,-0.99443c-1.7143,-0.66295 -3.20092,-1.63394 -4.45986,-2.91297c-1.25894,-1.27903 -2.25002,-2.8527 -2.97324,-4.72102c-0.72322,-1.86832 -1.08483,-4.00784 -1.08483,-6.41858z" data-paper-data="{&quot;glyphName&quot;:&quot;C&quot;,&quot;glyphIndex&quot;:4,&quot;firstGlyphOfWord&quot;:true,&quot;word&quot;:2,&quot;line&quot;:2,&quot;firstGlyphOfSecondLine&quot;:true}"></path>
				<path d="M269.04257,267.46325c0,3.32145 0.52902,5.82929 1.58707,7.5235c1.05804,1.69421 2.71207,2.54131 4.96209,2.54131c2.20984,0 3.85717,-0.84376 4.942,-2.53127c1.08483,-1.68751 1.62724,-4.19869 1.62724,-7.53354c0,-1.60716 -0.13058,-3.03685 -0.39174,-4.2891c-0.26116,-1.25224 -0.6596,-2.30694 -1.19532,-3.16409c-0.53572,-0.85715 -1.21541,-1.51006 -2.03908,-1.95872c-0.82367,-0.44866 -1.8047,-0.673 -2.9431,-0.673c-1.12501,0 -2.09935,0.22433 -2.92301,0.673c-0.82367,0.44866 -1.50336,1.10157 -2.03908,1.95872c-0.53572,0.85715 -0.93416,1.91185 -1.19532,3.16409c-0.26116,1.25224 -0.39174,2.68194 -0.39174,4.2891zM261.22778,267.46325c0,-2.20984 0.29799,-4.25227 0.89398,-6.12728c0.59599,-1.87501 1.48997,-3.48887 2.68194,-4.84156c1.19197,-1.35269 2.68529,-2.41073 4.47995,-3.17413c1.79466,-0.7634 3.89735,-1.1451 6.30808,-1.1451c2.34377,0 4.41298,0.36831 6.20764,1.10492c1.79466,0.73661 3.29467,1.77792 4.50003,3.12391c1.20537,1.34599 2.11609,2.9565 2.73216,4.83151c0.61608,1.87501 0.92411,3.95092 0.92411,6.22773c0,2.23662 -0.30134,4.29244 -0.90402,6.16746c-0.60268,1.87501 -1.50671,3.48552 -2.71207,4.83151c-1.20537,1.34599 -2.70538,2.39399 -4.50003,3.144c-1.79466,0.75001 -3.87726,1.12501 -6.24782,1.12501c-2.31698,0 -4.36945,-0.36161 -6.15741,-1.08483c-1.78796,-0.72322 -3.29132,-1.75113 -4.51008,-3.08373c-1.21876,-1.3326 -2.13953,-2.93641 -2.7623,-4.81142c-0.62277,-1.87501 -0.93416,-3.97101 -0.93416,-6.288z" data-paper-data="{&quot;glyphName&quot;:&quot;O&quot;,&quot;glyphIndex&quot;:5,&quot;word&quot;:2,&quot;line&quot;:2}"></path>
				<path d="M306.90447,282.02809c-0.72322,0 -1.32255,-0.14732 -1.79801,-0.44197c-0.47545,-0.29465 -0.8538,-0.68304 -1.13505,-1.16519c-0.28125,-0.48215 -0.47545,-1.02791 -0.58259,-1.63729c-0.10714,-0.60938 -0.16072,-1.2355 -0.16072,-1.87836v-18.88407c0,-0.89733 0.08705,-1.67412 0.26116,-2.33038c0.17411,-0.65626 0.46206,-1.19197 0.86385,-1.60716c0.40179,-0.41518 0.92746,-0.72322 1.57702,-0.92411c0.64956,-0.20089 1.44979,-0.30134 2.40069,-0.30134h4.98218c5.47772,0 9.60945,1.20871 12.39519,3.62614c2.78574,2.41743 4.1786,6.13732 4.1786,11.15968c0,2.45091 -0.3817,4.58039 -1.1451,6.38844c-0.7634,1.80805 -1.84488,3.30471 -3.24444,4.48999c-1.39956,1.18528 -3.08373,2.06586 -5.05249,2.64176c-1.96877,0.5759 -4.15182,0.86385 -6.54916,0.86385zM310.58084,277.52806h2.75225c1.5268,0 2.83931,-0.17411 3.93753,-0.52233c1.09822,-0.34822 2.0056,-0.9442 2.72212,-1.78796c0.71652,-0.84376 1.24555,-1.89176 1.58707,-3.144c0.34152,-1.25224 0.51228,-2.78908 0.51228,-4.61053c0,-3.38842 -0.70313,-5.91299 -2.10939,-7.57372c-1.40626,-1.66073 -3.56253,-2.49109 -6.4688,-2.49109h-2.93306z" data-paper-data="{&quot;glyphName&quot;:&quot;D&quot;,&quot;glyphIndex&quot;:6,&quot;word&quot;:2,&quot;line&quot;:2}"></path>
				<path d="M346.77532,282.02809c-0.72322,0 -1.32255,-0.14732 -1.79801,-0.44197c-0.47545,-0.29465 -0.8538,-0.68304 -1.13505,-1.16519c-0.28125,-0.48215 -0.47545,-1.02791 -0.58259,-1.63729c-0.10714,-0.60938 -0.16072,-1.2355 -0.16072,-1.87836v-18.88407c0,-0.89733 0.08705,-1.67412 0.26116,-2.33038c0.17411,-0.65626 0.46206,-1.19197 0.86385,-1.60716c0.40179,-0.41518 0.92746,-0.72322 1.57702,-0.92411c0.64956,-0.20089 1.44979,-0.30134 2.40069,-0.30134h4.98218c5.47772,0 9.60945,1.20871 12.39519,3.62614c2.78574,2.41743 4.1786,6.13732 4.1786,11.15968c0,2.45091 -0.3817,4.58039 -1.1451,6.38844c-0.7634,1.80805 -1.84488,3.30471 -3.24444,4.48999c-1.39956,1.18528 -3.08373,2.06586 -5.05249,2.64176c-1.96877,0.5759 -4.15182,0.86385 -6.54916,0.86385zM350.45168,277.52806h2.75225c1.5268,0 2.83931,-0.17411 3.93753,-0.52233c1.09822,-0.34822 2.0056,-0.9442 2.72212,-1.78796c0.71652,-0.84376 1.24555,-1.89176 1.58707,-3.144c0.34152,-1.25224 0.51228,-2.78908 0.51228,-4.61053c0,-3.38842 -0.70313,-5.91299 -2.10939,-7.57372c-1.40626,-1.66073 -3.56253,-2.49109 -6.4688,-2.49109h-2.93306z" data-paper-data="{&quot;glyphName&quot;:&quot;D&quot;,&quot;glyphIndex&quot;:7,&quot;word&quot;:2,&quot;line&quot;:2}"></path>
				<path d="M386.80688,282.02809c-0.68304,0 -1.25559,-0.14063 -1.71765,-0.42188c-0.46206,-0.28125 -0.83371,-0.64621 -1.11496,-1.09487c-0.28125,-0.44866 -0.48215,-0.95425 -0.60268,-1.51675c-0.12054,-0.5625 -0.1808,-1.12501 -0.1808,-1.68751v-19.14524c0,-0.7634 0.04688,-1.46988 0.14063,-2.11944c0.09375,-0.64956 0.30134,-1.20871 0.62277,-1.67747c0.32143,-0.46875 0.79018,-0.83706 1.40626,-1.10492c0.61608,-0.26786 1.44644,-0.40179 2.49109,-0.40179h12.89742c0.3884,0 0.75335,0.07031 1.09487,0.21094c0.34152,0.14063 0.63951,0.32813 0.89398,0.5625c0.25447,0.23438 0.45536,0.51228 0.60268,0.83371c0.14732,0.32143 0.22098,0.66295 0.22098,1.02456c0,0.36161 -0.07366,0.69978 -0.22098,1.01452c-0.14732,0.31473 -0.34822,0.58929 -0.60268,0.82367c-0.25447,0.23438 -0.55246,0.41853 -0.89398,0.55246c-0.34152,0.13393 -0.70648,0.20089 -1.09487,0.20089h-10.34606v6.50898h9.44204c0.3884,0 0.75335,0.06696 1.09487,0.20089c0.34152,0.13393 0.63951,0.32143 0.89398,0.5625c0.25447,0.24107 0.45536,0.51898 0.60268,0.83371c0.14732,0.31473 0.22098,0.65291 0.22098,1.01452c0,0.36161 -0.07366,0.69978 -0.22098,1.01452c-0.14732,0.31473 -0.34822,0.58929 -0.60268,0.82367c-0.25447,0.23438 -0.55246,0.41853 -0.89398,0.55246c-0.34152,0.13393 -0.70648,0.20089 -1.09487,0.20089h-9.44204v7.0313h10.8483c0.36161,0 0.69978,0.06696 1.01452,0.20089c0.31473,0.13393 0.59264,0.32143 0.83371,0.5625c0.24107,0.24107 0.42857,0.51898 0.5625,0.83371c0.13393,0.31473 0.20089,0.65291 0.20089,1.01452c0,0.36161 -0.06696,0.69978 -0.20089,1.01452c-0.13393,0.31473 -0.32143,0.58929 -0.5625,0.82367c-0.24107,0.23438 -0.51898,0.41853 -0.83371,0.55246c-0.31473,0.13393 -0.65291,0.20089 -1.01452,0.20089z" data-paper-data="{&quot;glyphName&quot;:&quot;E&quot;,&quot;glyphIndex&quot;:8,&quot;word&quot;:2,&quot;line&quot;:2}"></path>
				<path d="M424.78931,278.11065c0,0.54911 -0.0971,1.06139 -0.2913,1.53684c-0.1942,0.47545 -0.46206,0.89063 -0.80358,1.24555c-0.34152,0.35491 -0.73661,0.63282 -1.18528,0.83371c-0.44866,0.20089 -0.93416,0.30134 -1.45648,0.30134c-0.52233,0 -1.00782,-0.10045 -1.45648,-0.30134c-0.44866,-0.20089 -0.84041,-0.4788 -1.17523,-0.83371c-0.33482,-0.35491 -0.59934,-0.7701 -0.79353,-1.24555c-0.1942,-0.47545 -0.2913,-0.98773 -0.2913,-1.53684v-21.57606c0,-0.61608 0.12388,-1.15514 0.37165,-1.6172c0.24777,-0.46206 0.57925,-0.8471 0.99443,-1.15514c0.41518,-0.30804 0.90068,-0.53907 1.45648,-0.69309c0.55581,-0.15402 1.14175,-0.23103 1.75783,-0.23103h8.05587c1.48662,0 2.91297,0.0971 4.27905,0.2913c1.36608,0.1942 2.5681,0.55916 3.60605,1.09487c1.03795,0.53572 1.86832,1.27903 2.49109,2.22993c0.62277,0.9509 0.93416,2.18975 0.93416,3.71655c0,0.83036 -0.11384,1.6172 -0.34152,2.36051c-0.22768,0.74331 -0.59599,1.41296 -1.10492,2.00894c-0.50893,0.59599 -1.17523,1.10492 -1.9989,1.5268c-0.82367,0.42188 -1.83149,0.73326 -3.02346,0.93416v0.08036c0.85715,0.10714 1.59041,0.26451 2.19979,0.4721c0.60938,0.20759 1.12836,0.48215 1.55693,0.82367c0.42857,0.34152 0.77679,0.75335 1.04465,1.2355c0.26786,0.48215 0.48884,1.05135 0.66295,1.7076c0.17411,0.65626 0.31473,1.40291 0.42188,2.23997c0.10714,0.83706 0.20759,1.78461 0.30134,2.84266c0.02679,0.29465 0.04688,0.57925 0.06027,0.8538c0.01339,0.27456 0.02009,0.54576 0.02009,0.81362c0,0.5759 -0.05357,1.10492 -0.16072,1.58707c-0.10714,0.48215 -0.29465,0.89733 -0.5625,1.24555c-0.26786,0.34822 -0.63617,0.61942 -1.10492,0.81362c-0.46875,0.1942 -1.07144,0.2913 -1.80805,0.2913c-0.66965,0 -1.2288,-0.15402 -1.67747,-0.46206c-0.44866,-0.30804 -0.82032,-0.72992 -1.11496,-1.26563c-0.29465,-0.53572 -0.51898,-1.15514 -0.673,-1.85827c-0.15402,-0.70313 -0.2779,-1.45648 -0.37165,-2.26006c-0.13393,-1.16519 -0.27121,-2.13953 -0.41183,-2.92301c-0.14063,-0.78349 -0.36496,-1.41631 -0.673,-1.89845c-0.30804,-0.48215 -0.74666,-0.82367 -1.31586,-1.02456c-0.5692,-0.20089 -1.34934,-0.30134 -2.34042,-0.30134h-4.07816zM427.88309,265.35385c0.72322,0 1.44644,-0.04353 2.16966,-0.13058c0.72322,-0.08705 1.37613,-0.26786 1.95872,-0.54241c0.58259,-0.27456 1.0547,-0.67634 1.41631,-1.20537c0.36161,-0.52902 0.54241,-1.2355 0.54241,-2.11944c0,-1.01787 -0.17411,-1.78126 -0.52233,-2.2902c-0.34822,-0.50893 -0.81027,-0.89063 -1.38617,-1.1451c-0.5759,-0.25447 -1.2422,-0.41183 -1.9989,-0.4721c-0.7567,-0.06027 -1.54354,-0.0904 -2.36051,-0.0904h-3.03351v7.9956z" data-paper-data="{&quot;glyphName&quot;:&quot;R&quot;,&quot;glyphIndex&quot;:9,&quot;word&quot;:2,&quot;line&quot;:2}"></path>
				<path d="M460.88334,260.47212c0,0.64286 0.21429,1.18528 0.64286,1.62724c0.42857,0.44197 0.98773,0.82367 1.67747,1.1451c0.68974,0.32143 1.46988,0.60268 2.34042,0.84376c0.87054,0.24107 1.74778,0.48884 2.63172,0.74331c1.41965,0.42857 2.70873,0.88394 3.86722,1.36608c1.15849,0.48215 2.14957,1.05804 2.97324,1.72769c0.82367,0.66965 1.45983,1.46318 1.9085,2.3806c0.44866,0.91742 0.673,2.01899 0.673,3.30471c0,1.40626 -0.2779,2.6719 -0.83371,3.7969c-0.55581,1.12501 -1.35604,2.08261 -2.40069,2.87279c-1.04465,0.79018 -2.30694,1.39622 -3.78686,1.81809c-1.47992,0.42188 -3.144,0.63282 -4.99223,0.63282c-0.9509,0 -1.9085,-0.05692 -2.87279,-0.17076c-0.96429,-0.11384 -1.8951,-0.2779 -2.79243,-0.49219c-0.89733,-0.21429 -1.74108,-0.47545 -2.53127,-0.78349c-0.79018,-0.30804 -1.47992,-0.65626 -2.06921,-1.04465c-0.58929,-0.3884 -1.05135,-0.81362 -1.38617,-1.27568c-0.33482,-0.46206 -0.50224,-0.95425 -0.50224,-1.47657c0,-0.33482 0.07031,-0.66295 0.21094,-0.98438c0.14063,-0.32143 0.32143,-0.61273 0.54241,-0.87389c0.22098,-0.26116 0.46875,-0.4721 0.74331,-0.63282c0.27456,-0.16072 0.54576,-0.24107 0.81362,-0.24107c0.24107,0 0.47545,0.04018 0.70313,0.12054c0.22768,0.08036 0.45871,0.17746 0.69309,0.2913c0.23438,0.11384 0.47545,0.23773 0.72322,0.37165c0.24777,0.13393 0.51228,0.25447 0.79353,0.36161c0.92411,0.41518 1.96207,0.79018 3.11386,1.12501c1.15179,0.33482 2.35716,0.50224 3.6161,0.50224c0.68304,0 1.32925,-0.06362 1.93863,-0.19085c0.60938,-0.12723 1.1451,-0.32143 1.60716,-0.58259c0.46206,-0.26116 0.82702,-0.59934 1.09487,-1.01452c0.26786,-0.41518 0.40179,-0.91742 0.40179,-1.50671c0,-0.44197 -0.08036,-0.83706 -0.24107,-1.18528c-0.16072,-0.34822 -0.3817,-0.65291 -0.66295,-0.91407c-0.28125,-0.26116 -0.60938,-0.48884 -0.98438,-0.68304c-0.375,-0.1942 -0.7701,-0.36496 -1.18528,-0.51228l-0.90402,-0.32143c-0.17411,-0.05357 -0.34152,-0.11049 -0.50224,-0.17076c-0.16072,-0.06027 -0.33482,-0.11719 -0.52233,-0.17076l-1.04465,-0.30134c-0.22768,-0.05357 -0.42188,-0.1038 -0.58259,-0.15067c-0.16072,-0.04688 -0.30469,-0.09375 -0.43192,-0.14063c-0.12723,-0.04688 -0.25112,-0.09375 -0.37165,-0.14063c-0.12054,-0.04688 -0.26116,-0.0971 -0.42188,-0.15067l-1.88841,-0.66295c-1.21876,-0.44197 -2.26341,-0.90402 -3.13395,-1.38617c-0.87054,-0.48215 -1.58037,-1.02456 -2.12948,-1.62724c-0.54911,-0.60268 -0.95425,-1.28907 -1.21541,-2.05917c-0.26116,-0.7701 -0.39174,-1.66408 -0.39174,-2.68194c0,-1.3393 0.2779,-2.55136 0.83371,-3.63619c0.55581,-1.08483 1.35269,-2.00894 2.39064,-2.77234c1.03795,-0.7634 2.29689,-1.35269 3.77681,-1.76787c1.47992,-0.41518 3.144,-0.62277 4.99223,-0.62277c0.66965,0 1.39956,0.04353 2.18975,0.13058c0.79018,0.08705 1.58037,0.21764 2.37055,0.39174c0.79018,0.17411 1.55024,0.39844 2.28015,0.673c0.72992,0.27456 1.37613,0.59599 1.93863,0.96429c0.5625,0.36831 1.01452,0.78684 1.35604,1.25559c0.34152,0.46875 0.51228,0.99108 0.51228,1.56698c0,0.33482 -0.06362,0.64286 -0.19085,0.92411c-0.12723,0.28125 -0.29799,0.52233 -0.51228,0.72322c-0.21429,0.20089 -0.46541,0.35826 -0.75335,0.4721c-0.28795,0.11384 -0.58594,0.17076 -0.89398,0.17076c-0.40179,0 -0.7701,-0.08705 -1.10492,-0.26116c-0.62947,-0.32143 -1.21541,-0.59599 -1.75783,-0.82367c-0.54241,-0.22768 -1.08148,-0.41518 -1.6172,-0.5625c-0.53572,-0.14732 -1.08818,-0.25447 -1.65738,-0.32143c-0.5692,-0.06696 -1.19532,-0.10045 -1.87836,-0.10045c-0.64286,0 -1.27568,0.05692 -1.89845,0.17076c-0.62277,0.11384 -1.17858,0.29465 -1.66742,0.54241c-0.48884,0.24777 -0.88394,0.56585 -1.18528,0.95425c-0.30134,0.3884 -0.45201,0.86385 -0.45201,1.42635z" data-paper-data="{&quot;glyphName&quot;:&quot;S&quot;,&quot;glyphIndex&quot;:10,&quot;lastGlyphOfWord&quot;:true,&quot;word&quot;:2,&quot;line&quot;:2,&quot;lastGlyphOfSecondLine&quot;:true}"></path>
			</g>
			<g data-paper-data="{&quot;fillRule&quot;:&quot;evenodd&quot;,&quot;isIcon&quot;:&quot;true&quot;,&quot;iconType&quot;:&quot;icon&quot;,&quot;rawIconId&quot;:&quot;115122&quot;,&quot;combineTerms&quot;:&quot;C&quot;,&quot;selectedEffects&quot;:{&quot;container&quot;:&quot;&quot;,&quot;transformation&quot;:&quot;&quot;,&quot;pattern&quot;:&quot;&quot;},&quot;iconStyle&quot;:&quot;standalone&quot;,&quot;bounds&quot;:{&quot;x&quot;:72.40224011829596,&quot;y&quot;:181.4182183953149,&quot;width&quot;:108.1810143273807,&quot;height&quot;:107.16356320937018},&quot;suitableAsStandaloneIcon&quot;:true}" fill-rule="evenodd">
				<path d="M137.7673,288.45671c24.40729,-5.85071 42.81596,-26.97411 42.81596,-52.94939c0,-29.82832 -24.26078,-54.0891 -54.09051,-54.0891c-29.82973,0 -54.09051,24.26078 -54.09051,54.0891c0,25.97528 18.41148,47.38185 42.81596,52.94939c2.99509,0.71144 5.70983,-1.71309 5.70983,-4.7124c0,-2.28083 -1.5708,-4.13762 -3.71216,-4.56589c-20.12316,-4.13903 -35.25075,-22.26452 -35.25075,-43.6725c0,-24.68905 19.98088,-44.66993 44.52764,-44.66993c24.68905,0 44.67133,19.98088 44.67133,44.66993c0,21.40798 -15.129,39.53348 -35.39445,43.6725c-2.14136,0.42687 -3.71075,2.28506 -3.71075,4.56589c0,2.99931 2.85562,5.42384 5.70842,4.7124zM143.33343,213.95705c1.85397,-1.85537 1.85397,-4.85188 0,-6.70725c-4.28131,-4.42501 -10.70399,-6.99324 -16.84068,-6.99324c-13.12852,0 -23.69163,10.70399 -23.69163,23.69022v23.12107c0,13.12852 10.56311,23.8325 23.69163,23.8325c6.13669,0 12.12968,-2.42453 16.84068,-6.99324c1.85397,-1.85537 1.85397,-4.85328 0,-6.70725c-1.85679,-1.85537 -4.85328,-1.85537 -6.70866,0c-2.8528,2.71192 -6.42127,4.13903 -10.13202,4.13903c-7.84837,0 -14.27104,-6.42267 -14.27104,-14.27104v-23.12107c0,-7.70609 6.42267,-14.12876 14.27104,-14.12876c3.70934,0 7.27922,1.4271 10.13202,4.13903c1.85679,1.85537 4.85328,1.85537 6.70866,0z" data-paper-data="{&quot;isPathIcon&quot;:true}"></path>
			</g>
		</g>
	</g>
</svg>