<svg xmlns:mydata="http://www.w3.org/2000/svg" mydata:contrastcolor="001489" mydata:template="Default" mydata:presentation="2.5" mydata:layouttype="undefined" mydata:specialfontid="undefined" mydata:id1="436" mydata:id2="546" mydata:companyname="Cool Codders" mydata:companytagline="" version="1.1" xmlns="http://www.w3.org/2000/svg" xmlns:xlink="http://www.w3.org/1999/xlink" viewBox="0 0 550 470"><g fill="#0085ca" fill-rule="nonzero" stroke="none" stroke-width="1" stroke-linecap="butt" stroke-linejoin="miter" stroke-miterlimit="10" stroke-dasharray="" stroke-dashoffset="0" font-family="none" font-weight="none" font-size="none" text-anchor="none" style="mix-blend-mode: normal"><g data-paper-data="{&quot;isGlobalGroup&quot;:true,&quot;bounds&quot;:{&quot;x&quot;:95.95426896651406,&quot;y&quot;:162.43019992774518,&quot;width&quot;:358.09146206697187,&quot;height&quot;:145.13960014450961}}"><g data-paper-data="{&quot;stacked&quot;:true,&quot;isPrimaryText&quot;:true}"><path d="M221.77188,172.89242l3.0428,-6.50242c-3.95981,-2.41757 -9.37849,-3.95981 -15.17231,-3.95981c-17.08969,0 -30.09452,14.08857 -30.09452,29.96948c0,16.83959 13.00483,30.96985 30.09452,30.96985c6.04391,0 11.54596,-1.79233 16.17268,-4.87681l-3.75139,-6.21064c-3.5013,2.50093 -7.75288,3.37626 -12.42128,3.37626c-12.71306,0 -22.17491,-10.79568 -22.17491,-23.25865c0,-11.50428 9.37849,-22.25828 22.17491,-22.25828c4.45999,0 8.66989,0.66691 12.12951,2.75102z" data-paper-data="{&quot;glyphName&quot;:&quot;C&quot;,&quot;glyphIndex&quot;:0,&quot;firstGlyphOfWord&quot;:true,&quot;word&quot;:1,&quot;line&quot;:1,&quot;firstGlyphOfFirstLine&quot;:true}"></path><path d="M296.92482,162.4302c-6.87756,0 -13.0882,2.29252 -18.09006,6.04391c-4.96018,-3.75139 -11.17082,-6.04391 -18.00669,-6.04391c-17.08969,0 -30.09452,14.08857 -30.09452,29.96948c0,16.83959 13.00483,30.96985 30.09452,30.96985c6.83587,0 13.04652,-2.29252 18.00669,-6.12728c5.00186,3.83476 11.2125,6.12728 18.09006,6.12728c17.00632,0 30.05284,-14.17194 30.05284,-30.96985c0,-15.83922 -13.04652,-29.96948 -30.05284,-29.96948zM238.65315,192.39968c0,-11.50428 9.37849,-22.25828 22.17491,-22.25828c4.6684,0 8.91998,1.45888 12.3796,3.87644c-4.00149,5.16859 -6.37737,11.62932 -6.37737,18.38183c0,7.29438 2.41757,14.04689 6.5441,19.38221c-3.5013,2.62598 -7.79456,4.16822 -12.54633,4.16822c-12.71306,0 -22.17491,-11.08746 -22.17491,-23.55042zM296.92482,215.9501c-4.79345,0 -9.08671,-1.58392 -12.6297,-4.16822c4.16822,-5.33532 6.58578,-12.12951 6.58578,-19.38221c0,-6.75251 -2.37588,-13.21325 -6.41905,-18.38183c3.5013,-2.41757 7.75288,-3.87644 12.46297,-3.87644c12.67138,0 22.13323,10.79568 22.13323,22.25828c0,12.46297 -9.46185,23.55042 -22.13323,23.55042zM278.87644,206.02974c-2.62598,-3.91812 -4.12653,-8.66989 -4.12653,-13.63007c0,-4.58504 1.50056,-9.04503 4.08485,-12.75474c2.62598,3.70971 4.12653,8.1697 4.12653,12.75474c0,4.96018 -1.50056,9.71194 -4.08485,13.63007z" data-paper-data="{&quot;glyphName&quot;:&quot;&quot;,&quot;glyphIndex&quot;:1,&quot;word&quot;:1,&quot;line&quot;:1}"></path><path d="M345.81799,214.65795v-50.9356h-7.91961v58.35503h32.55377v-7.41943z" data-paper-data="{&quot;glyphName&quot;:&quot;L&quot;,&quot;glyphIndex&quot;:2,&quot;lastGlyphOfWord&quot;:true,&quot;word&quot;:1,&quot;line&quot;:1,&quot;lastGlyphOfFirstLine&quot;:true}"></path><path d="M138.1783,257.0927l3.0428,-6.50242c-3.95981,-2.41757 -9.37849,-3.95981 -15.17231,-3.95981c-17.08969,0 -30.09452,14.08857 -30.09452,29.96948c0,16.83959 13.00483,30.96985 30.09452,30.96985c6.04391,0 11.54596,-1.79233 16.17268,-4.87681l-3.75139,-6.21064c-3.5013,2.50093 -7.75288,3.37626 -12.42128,3.37626c-12.71306,0 -22.17491,-10.79568 -22.17491,-23.25865c0,-11.50428 9.37849,-22.25828 22.17491,-22.25828c4.45999,0 8.66989,0.66691 12.12951,2.75102z" data-paper-data="{&quot;glyphName&quot;:&quot;C&quot;,&quot;glyphIndex&quot;:3,&quot;firstGlyphOfWord&quot;:true,&quot;word&quot;:2,&quot;line&quot;:2,&quot;firstGlyphOfSecondLine&quot;:true}"></path><path d="M177.23449,307.5698c17.00632,0 30.05284,-14.17194 30.05284,-30.96985c0,-15.83922 -13.04652,-29.96948 -30.05284,-29.96948c-17.08969,0 -30.09452,14.08857 -30.09452,29.96948c0,16.83959 13.00483,30.96985 30.09452,30.96985zM177.23449,300.15038c-12.71306,0 -22.17491,-11.08746 -22.17491,-23.55042c0,-11.50428 9.37849,-22.25828 22.17491,-22.25828c12.67138,0 22.13323,10.79568 22.13323,22.25828c0,12.46297 -9.46185,23.55042 -22.13323,23.55042z" data-paper-data="{&quot;glyphName&quot;:&quot;O&quot;,&quot;glyphIndex&quot;:4,&quot;word&quot;:2,&quot;line&quot;:2}"></path><path d="M233.38036,247.92262h-15.17231v58.35503h15.17231c20.46594,0 34.13769,-11.75437 34.13769,-30.05284c0,-17.2981 -12.21287,-28.30219 -34.13769,-28.30219zM233.38036,298.89991h-6.62746v-43.59954h6.62746c17.67324,0 26.21808,8.21139 26.21808,20.92445c0,13.88016 -10.0454,22.6751 -26.21808,22.6751z" data-paper-data="{&quot;glyphName&quot;:&quot;D&quot;,&quot;glyphIndex&quot;:5,&quot;word&quot;:2,&quot;line&quot;:2}"></path><path d="M293.61109,247.92262h-15.17231v58.35503h15.17231c20.46594,0 34.13769,-11.75437 34.13769,-30.05284c0,-17.2981 -12.21287,-28.30219 -34.13769,-28.30219zM293.61109,298.89991h-6.62746v-43.59954h6.62746c17.67324,0 26.21808,8.21139 26.21808,20.92445c0,13.88016 -10.0454,22.6751 -26.21808,22.6751z" data-paper-data="{&quot;glyphName&quot;:&quot;D&quot;,&quot;glyphIndex&quot;:6,&quot;word&quot;:2,&quot;line&quot;:2}"></path><path d="M370.59804,255.34205v-7.41943h-31.92854v58.35503h31.92854v-7.41943h-24.00893v-18.63193h21.88314v-7.29438h-21.88314v-17.58987z" data-paper-data="{&quot;glyphName&quot;:&quot;E&quot;,&quot;glyphIndex&quot;:7,&quot;word&quot;:2,&quot;line&quot;:2}"></path><path d="M412.82207,306.27765h10.62895l-20.04912,-20.17417c10.08708,-1.58392 15.96427,-9.5869 15.96427,-19.04875c0,-12.29624 -9.54522,-19.13211 -22.63341,-19.13211h-16.83959v58.35503h7.91961v-51.01897h7.12765c10.92073,0 16.50614,3.58467 16.50614,11.87942c0,8.58653 -6.41905,13.7968 -17.88165,13.67175l-2.45925,3.33457z" data-paper-data="{&quot;glyphName&quot;:&quot;R&quot;,&quot;glyphIndex&quot;:8,&quot;word&quot;:2,&quot;line&quot;:2}"></path><path d="M426.41046,306.77784c18.09006,0 27.63527,-6.25232 27.63527,-16.42277c0,-8.08634 -6.79419,-13.71343 -11.79605,-17.7566c-3.83476,-3.08448 -6.83587,-5.29363 -6.83587,-8.83662c0,-4.12653 3.25121,-8.4198 15.79754,-8.4198v-7.41943c-16.88128,0 -23.71715,7.37774 -23.71715,15.71418c0,7.2527 5.46036,11.67101 9.75363,15.13063c4.71008,3.75139 8.8783,7.16933 8.8783,11.42091c0,5.71046 -6.00223,8.58653 -19.71566,8.58653z" data-paper-data="{&quot;glyphName&quot;:&quot;S&quot;,&quot;glyphIndex&quot;:9,&quot;lastGlyphOfWord&quot;:true,&quot;word&quot;:2,&quot;line&quot;:2,&quot;lastGlyphOfSecondLine&quot;:true}"></path></g></g></g></svg>